<svg class="diagram-root" style="background: #f5f6f6" xmlns="http://www.w3.org/2000/svg" xmlns:xlink="http://www.w3.org/1999/xlink"><style>.diagram-root { font-family: "Helvetica Neue", sans-serif; font-size: 12px; } .t { overflow: visible; } .t-bg { y: 40; fill: #fff;   } .th { fill: #005aa0;   } .tht { fill: #fff; font-size: 14px;  } .tf { fill: #323c46; overflow: visible; } .tf.pk { fill: #005aa0; font-weight: bold; } .tf.fk { font-weight: bold; } .ty { fill: #adb1b5; font-weight: normal; text-anchor: end; } .r { fill: transparent; stroke: #c3c3c3; stroke-width: 1; } .l { stroke: 1; } .i { fill: #c2c7ce; stroke: #c2c7ce; } .i.ix { fill: #afb3b6; stroke: #000; } .fa { fill: transparent; overflow: visible; } .fa .bg.hover { fill: #f7f7f7; } .c { cy: 12; r: 4; stroke: #d2d2dc; fill: #d2d2dc; } .hr { fill: transparent; stroke: #323c46; stroke-opacity: 0.035; stroke-width: 13; } .dc { stroke: #fa5a3c; fill: #fa5a3c; } .x { stroke: white; stroke-width: 1; } .hl .th { fill: #1b9bff; } .hl .tht {  } .fhl .bg { fill: #e7f4ff; } .fhls .bg {  } .r.hl { stroke: #1b9bff; } .dim { opacity: 0.25; }</style><g class="drawing-wrapper" transform="translate(-100, 4) scale(1,1)"><g class="rs"><path d="M 767 493 m -1, 0 a 1,1 0 1,0 2,0 a 1,1 0 1,0 -2,0 M 767 493 m -0.5, 0 a 0.5,0.5 0 1,0 1,0 a 0.5,0.5 0 1,0 -1,0  M767 493 L767 493 755 493 M 767 499 m -1, 0 a 1,1 0 1,0 2,0 a 1,1 0 1,0 -2,0 M 767 499 m -0.5, 0 a 0.5,0.5 0 1,0 1,0 a 0.5,0.5 0 1,0 -1,0  M767 499 L767 499 760 493 767 487 M 767 487 m -1, 0 a 1,1 0 1,0 2,0 a 1,1 0 1,0 -2,0 M 767 487 m -0.5, 0 a 0.5,0.5 0 1,0 1,0 a 0.5,0.5 0 1,0 -1,0  M755 493 Q 640.6 493, 526.19 306 T 297.38 119 M 285.38 119 m -1, 0 a 1,1 0 1,0 2,0 a 1,1 0 1,0 -2,0 M 285.38 119 m -0.5, 0 a 0.5,0.5 0 1,0 1,0 a 0.5,0.5 0 1,0 -1,0  M285.38 119 L285.38 119 297.38 119 M291.38 125 L291.38 125 291.38 113" id="h221257298" class="r"></path><path d="M 724 83 m -1, 0 a 1,1 0 1,0 2,0 a 1,1 0 1,0 -2,0 M 724 83 m -0.5, 0 a 0.5,0.5 0 1,0 1,0 a 0.5,0.5 0 1,0 -1,0  M724 83 L724 83 712 83 M 724 89 m -1, 0 a 1,1 0 1,0 2,0 a 1,1 0 1,0 -2,0 M 724 89 m -0.5, 0 a 0.5,0.5 0 1,0 1,0 a 0.5,0.5 0 1,0 -1,0  M724 89 L724 89 717 83 724 77 M 724 77 m -1, 0 a 1,1 0 1,0 2,0 a 1,1 0 1,0 -2,0 M 724 77 m -0.5, 0 a 0.5,0.5 0 1,0 1,0 a 0.5,0.5 0 1,0 -1,0  M712 83 Q 608.35 83, 504.69 101 T 297.38 119 M 285.38 119 m -1, 0 a 1,1 0 1,0 2,0 a 1,1 0 1,0 -2,0 M 285.38 119 m -0.5, 0 a 0.5,0.5 0 1,0 1,0 a 0.5,0.5 0 1,0 -1,0  M285.38 119 L285.38 119 297.38 119 M291.38 125 L291.38 125 291.38 113" id="h1168633520" class="r"></path><path d="M 273.06 441 m -1, 0 a 1,1 0 1,0 2,0 a 1,1 0 1,0 -2,0 M 273.06 441 m -0.5, 0 a 0.5,0.5 0 1,0 1,0 a 0.5,0.5 0 1,0 -1,0  M273.06 441 L273.06 441 285.06 441 M 273.06 447 m -1, 0 a 1,1 0 1,0 2,0 a 1,1 0 1,0 -2,0 M 273.06 447 m -0.5, 0 a 0.5,0.5 0 1,0 1,0 a 0.5,0.5 0 1,0 -1,0  M273.06 447 L273.06 447 280.06 441 273.06 435 M 273.06 435 m -1, 0 a 1,1 0 1,0 2,0 a 1,1 0 1,0 -2,0 M 273.06 435 m -0.5, 0 a 0.5,0.5 0 1,0 1,0 a 0.5,0.5 0 1,0 -1,0  M285.06 441 C 354.772 441, 347.38 119, 297.38 119 M 285.38 119 m -1, 0 a 1,1 0 1,0 2,0 a 1,1 0 1,0 -2,0 M 285.38 119 m -0.5, 0 a 0.5,0.5 0 1,0 1,0 a 0.5,0.5 0 1,0 -1,0  M285.38 119 L285.38 119 297.38 119 M291.38 125 L291.38 125 291.38 113" id="h2573923984" class="r"></path><path d="M 273.06 466 m -1, 0 a 1,1 0 1,0 2,0 a 1,1 0 1,0 -2,0 M 273.06 466 m -0.5, 0 a 0.5,0.5 0 1,0 1,0 a 0.5,0.5 0 1,0 -1,0  M273.06 466 L273.06 466 285.06 466 M 273.06 472 m -1, 0 a 1,1 0 1,0 2,0 a 1,1 0 1,0 -2,0 M 273.06 472 m -0.5, 0 a 0.5,0.5 0 1,0 1,0 a 0.5,0.5 0 1,0 -1,0  M273.06 472 L273.06 472 280.06 466 273.06 460 M 273.06 460 m -1, 0 a 1,1 0 1,0 2,0 a 1,1 0 1,0 -2,0 M 273.06 460 m -0.5, 0 a 0.5,0.5 0 1,0 1,0 a 0.5,0.5 0 1,0 -1,0  M285.06 466 Q 319.54 466, 354.03 530.5 T 423 595 M 435 595 m -1, 0 a 1,1 0 1,0 2,0 a 1,1 0 1,0 -2,0 M 435 595 m -0.5, 0 a 0.5,0.5 0 1,0 1,0 a 0.5,0.5 0 1,0 -1,0  M435 595 L435 595 423 595 M429 601 L429 601 429 589" id="h2672714042" class="r"></path><path d="M 734 294 m -1, 0 a 1,1 0 1,0 2,0 a 1,1 0 1,0 -2,0 M 734 294 m -0.5, 0 a 0.5,0.5 0 1,0 1,0 a 0.5,0.5 0 1,0 -1,0  M734 294 L734 294 722 294 M 734 300 m -1, 0 a 1,1 0 1,0 2,0 a 1,1 0 1,0 -2,0 M 734 300 m -0.5, 0 a 0.5,0.5 0 1,0 1,0 a 0.5,0.5 0 1,0 -1,0  M734 300 L734 300 727 294 734 288 M 734 288 m -1, 0 a 1,1 0 1,0 2,0 a 1,1 0 1,0 -2,0 M 734 288 m -0.5, 0 a 0.5,0.5 0 1,0 1,0 a 0.5,0.5 0 1,0 -1,0  M722 294 Q 695.1 294, 668.2 444.5 T 614.4 595 M 602.4 595 m -1, 0 a 1,1 0 1,0 2,0 a 1,1 0 1,0 -2,0 M 602.4 595 m -0.5, 0 a 0.5,0.5 0 1,0 1,0 a 0.5,0.5 0 1,0 -1,0  M602.4 595 L602.4 595 614.4 595 M608.4 601 L608.4 601 608.4 589" id="h639454232" class="r"></path><path d="M 734 319 m -1, 0 a 1,1 0 1,0 2,0 a 1,1 0 1,0 -2,0 M 734 319 m -0.5, 0 a 0.5,0.5 0 1,0 1,0 a 0.5,0.5 0 1,0 -1,0  M734 319 L734 319 722 319 M 734 325 m -1, 0 a 1,1 0 1,0 2,0 a 1,1 0 1,0 -2,0 M 734 325 m -0.5, 0 a 0.5,0.5 0 1,0 1,0 a 0.5,0.5 0 1,0 -1,0  M734 325 L734 325 727 319 734 313 M 734 313 m -1, 0 a 1,1 0 1,0 2,0 a 1,1 0 1,0 -2,0 M 734 313 m -0.5, 0 a 0.5,0.5 0 1,0 1,0 a 0.5,0.5 0 1,0 -1,0  M722 319 Q 615.85 319, 509.69 219 T 297.38 119 M 285.38 119 m -1, 0 a 1,1 0 1,0 2,0 a 1,1 0 1,0 -2,0 M 285.38 119 m -0.5, 0 a 0.5,0.5 0 1,0 1,0 a 0.5,0.5 0 1,0 -1,0  M285.38 119 L285.38 119 297.38 119 M291.38 125 L291.38 125 291.38 113" id="h1499507187" class="r"></path></g><g class="hrs"></g><g class="ts"><svg width="163.38" height="200" x="122" y="62" id="h3299212598" class="t"><rect height="40" width="163.38" class="th"></rect><text x="13" y="25" class="tht">Employees</text><rect height="160" width="163.38" class="t-bg"></rect><text x="13" y="61" class="tf pk">emp_no<tspan x="150.38" class="ty">int</tspan></text><path d="M7,14A2,2 0 0,1 5,12A2,2 0 0,1 7,10A2,2 0 0,1 9,12A2,2 0 0,1 7,14M12.65,10C11.83,7.67 9.61,6 7, 6A6, 6 0 0, 0 1, 12A6, 6 0 0, 0 7, 18C9.61, 18 11.83, 16.33 12.65, 14H17V18H21V14H23V10H12.65Z" class="i pk" transform="translate(117.706171875, 48) scale(0.65)"></path><text x="13" y="86" class="tf">birthdate<tspan x="150.38" class="ty">date</tspan></text><text x="13" y="111" class="tf">first_name<tspan x="150.38" class="ty">varchar(30)</tspan></text><text x="13" y="136" class="tf">last_name<tspan x="150.38" class="ty">varchar(30)</tspan></text><text x="13" y="161" class="tf">gender<tspan x="150.38" class="ty">varchar</tspan></text><text x="13" y="186" class="tf">hire_date<tspan x="150.38" class="ty">date</tspan></text></svg><svg width="124.06" height="150" x="149" y="384" id="h3531437595" class="t"><rect height="40" width="124.06" class="th"></rect><text x="13" y="25" class="tht">Dept_employee</text><rect height="110" width="124.06" class="t-bg"></rect><text x="13" y="61" class="tf fk">emp_no<tspan x="111.06" class="ty">int</tspan></text><text x="13" y="86" class="tf fk">dept_no<tspan x="111.06" class="ty">int</tspan></text><text x="13" y="111" class="tf">from_date<tspan x="111.06" class="ty">date</tspan></text><text x="13" y="136" class="tf">to_date<tspan x="111.06" class="ty">date</tspan></text></svg><svg width="167.4" height="100" x="435" y="538" id="h3708248841" class="t"><rect height="40" width="167.4" class="th"></rect><text x="13" y="25" class="tht">Departments</text><rect height="60" width="167.4" class="t-bg"></rect><text x="13" y="61" class="tf pk">dept_no<tspan x="154.4" class="ty">int</tspan></text><path d="M7,14A2,2 0 0,1 5,12A2,2 0 0,1 7,10A2,2 0 0,1 9,12A2,2 0 0,1 7,14M12.65,10C11.83,7.67 9.61,6 7, 6A6, 6 0 0, 0 1, 12A6, 6 0 0, 0 7, 18C9.61, 18 11.83, 16.33 12.65, 14H17V18H21V14H23V10H12.65Z" class="i pk" transform="translate(121.726171875, 48) scale(0.65)"></path><text x="13" y="86" class="tf">dept_name<tspan x="154.4" class="ty">varchar(30)</tspan></text></svg><svg width="123.38" height="150" x="767" y="436" id="h3858243705" class="t"><rect height="40" width="123.38" class="th"></rect><text x="13" y="25" class="tht">Salaries</text><rect height="110" width="123.38" class="t-bg"></rect><text x="13" y="61" class="tf fk">emp_no<tspan x="110.38" class="ty">int</tspan></text><text x="13" y="86" class="tf">salary<tspan x="110.38" class="ty">int</tspan></text><text x="13" y="111" class="tf">from_date<tspan x="110.38" class="ty">date</tspan></text><text x="13" y="136" class="tf">to_date<tspan x="110.38" class="ty">date</tspan></text></svg><svg width="118.61" height="100" x="734" y="237" id="h2403958395" class="t"><rect height="40" width="118.61" class="th"></rect><text x="13" y="25" class="tht">Dept_manager</text><rect height="60" width="118.61" class="t-bg"></rect><text x="13" y="61" class="tf fk">dept_no<tspan x="105.61" class="ty">int</tspan></text><text x="13" y="86" class="tf fk">emp_no<tspan x="105.61" class="ty">int</tspan></text></svg><svg width="126.03" height="150" x="724" y="26" id="h3517680912" class="t"><rect height="40" width="126.03" class="th"></rect><text x="13" y="25" class="tht">Titles</text><rect height="110" width="126.03" class="t-bg"></rect><text x="13" y="61" class="tf fk">emp_no<tspan x="113.03" class="ty">int</tspan></text><text x="13" y="86" class="tf">title<tspan x="113.03" class="ty">charvar(30)</tspan></text><text x="13" y="111" class="tf">from_date<tspan x="113.03" class="ty">date</tspan></text><text x="13" y="136" class="tf">to_date<tspan x="113.03" class="ty">date</tspan></text></svg></g></g><text class="qdbd-link" x="10" y="20">www.quickdatabasediagrams.com</text></svg>